<?xml version="1.0" encoding="UTF-8"?>
<svg id="Layer_1" data-name="Layer 1" xmlns="http://www.w3.org/2000/svg" width="49.08" height="42.67" viewBox="0 0 49.08 42.67">
  <path d="M30.04,5.85l-2.06,1.17.84,1.22-1.5,1.22.61,1.54-5.38.37c-4.77,9.78-8.47,20.4-11.37,30.88l-1.45.38-.19-1.96-.05.05-.98.84-.05-.56-2.67,1.08-.51-2.48-2.29,1.96-.47-2.48-1.03,1.12-1.5-2.76c2.85-8.47,5.85-16.84,9.36-25.08h-.7l-.14-1.5-2.99.14-.47-2.85,1.5-.8-1.54-.56,1.17-2.29,1.12-.28-.23-2.9C13.52.66,20.02.14,26.53,0l1.64,2.34-.33.23,2.15.7-1.17.66.42.56-1.03.75,1.83.61ZM27.13,3.56l-1.78-.56,1.22-.89-.66-.89c-5.89.14-11.74.51-17.59,1.12l.09.89,2.71,1.31-4.16.94-.33.66,2.71,1.12-3.04,1.54.19.98,5.38-.19C7.62,18.53,4.4,27.98,1.26,37.33l.47.84,1.96-2.11v3.18l1.26-.89,1.17-1.96.23,2.34,1.03-.89.23,2.15,1.03-.28c2.95-10.53,6.55-21.1,11.37-30.92l5.24-.37-.56-1.36,1.45-1.22-.84-1.22,1.83-1.08Z"/>
  <path d="M48.05,5.24l.61,1.22-2.15,1.03,2.43,1.17-1.5.94.37,1.59c-.66-.14-1.31-.28-1.96-.28-2.9,0-4.3,1.92-4.3,4.68,0,4.77,3.18,8.89,3.18,13.75,0,7.49-7.06,13.33-14.27,13.33-2.43,0-4.91-.61-6.97-2.01l-.14-.23c-1.03-.37-2.01-.84-2.9-1.45l-1.54-2.43,2.29-.23-.37-1.36.98-.33-.75-2.67,2.71.61-.79-1.5,1.59-.19-.98-2.29c1.5.84,3.23,1.4,4.96,1.4,2.67,0,4.72-1.64,4.72-4.4,0-3.46-3.65-6.74-3.65-12.68C29.61,5.71,35.32.19,42.48.19c2.01,0,3.98.42,5.85,1.17l-1.5,1.68.23.42c.7.14,1.36.33,2.01.61l-1.03,1.17ZM46.32,1.82c-1.22-.42-2.48-.65-3.79-.65-3.51,0-6.97,1.82-9.26,4.44-1.78,2.01-2.48,4.72-2.48,7.34,0,5.43,3.6,8.66,3.6,12.73,0,3.23-2.11,6.13-5.52,6.13-1.03,0-2.01-.23-2.95-.65l.28.65-1.4.19,1.22,2.25-3.32-.75.51,1.92-.98.33.42,1.59-1.73.19.37.61c2.01,1.36,4.44,1.96,6.83,1.96,7.11,0,14.03-5.8,14.03-13.15,0-4.82-3.18-8.94-3.18-13.71,0-2.9,1.45-4.91,4.49-4.91.56,0,1.17.09,1.73.19l-.37-1.36,1.31-.8-2.62-1.5,2.48-.89-.56-1.08.89-1.08Z"/>
</svg>