<svg id="Layer_1" data-name="Layer 1" xmlns="http://www.w3.org/2000/svg" viewBox="0 0 146.13 32.04"><defs><style>.cls-1{fill:#faa81e}.cls-2{fill:#fbd40a}</style></defs><path d="M56.71 25.16a8.8 8.8 0 0 1-6.63-2.46.29.29 0 0 1-.09-.2.43.43 0 0 1 0-.11l1.75-1.95c.1-.12.28-.17.35-.07a6.26 6.26 0 0 0 4.82 1.82c1.72 0 3.08-.6 3.08-1.84s-1.2-1.7-3.39-2.34c-3.82-1.13-5.86-2.45-5.86-5.49S53.38 8 56.78 8c2.24 0 4.6.54 5.87 2.21.1.15.15.27.05.36L61 12.28c-.07.07-.26.17-.38.05A5.48 5.48 0 0 0 57 10.91h-.24c-1.85 0-2.55.74-2.55 1.59 0 1.18.86 1.67 3.79 2.52 3.33 1 5.33 2.05 5.33 5.26s-3 4.88-6.58 4.88zM73.67 25.06c-4.2 0-6.74-2.1-6.74-6.06V8.58a.32.32 0 0 1 .27-.3h2.91c.16 0 .26.19.26.31v9.94c0 2.19.89 3.42 3.35 3.42 2.61 0 3.37-1.37 3.37-3.52v-9.9a.28.28 0 0 1 .28-.24h2.94a.26.26 0 0 1 .24.24v10.4c0 4-2.72 6.13-6.89 6.13zM91.43 8.08c4.2 0 6.75 2.1 6.75 6.06v10.4a.33.33 0 0 1-.28.31H95c-.17 0-.27-.19-.27-.31v-9.93c0-2.19-.9-3.42-3.35-3.42-2.62 0-3.37 1.37-3.37 3.51v9.91a.28.28 0 0 1-.28.24h-3a.24.24 0 0 1-.23-.24v-10.4c0-4 2.71-6.13 6.88-6.13zM121.6 25.06c-4.2 0-6.75-2.1-6.75-6.06V8.58a.33.33 0 0 1 .29-.3H118c.17 0 .26.19.26.31v9.94c0 2.19.89 3.42 3.35 3.42 2.62 0 3.37-1.37 3.37-3.52v-9.9a.28.28 0 0 1 .28-.24h3a.26.26 0 0 1 .24.24v10.4c0 4-2.71 6.13-6.89 6.13zM139.36 8.08c4.2 0 6.74 2.1 6.74 6.06v10.4a.31.31 0 0 1-.28.31h-2.9c-.17 0-.26-.19-.26-.31v-9.93c0-2.19-.9-3.42-3.36-3.42-2.61 0-3.37 1.37-3.37 3.51v9.91a.28.28 0 0 1-.28.24h-3a.24.24 0 0 1-.23-.24v-10.4c0-4 2.71-6.13 6.88-6.13zM111.35 8.11h-1.55c-4.18 0-6.9 2.15-6.9 6.13v10.4a.26.26 0 0 0 .24.24h3a.28.28 0 0 0 .28-.24v-9.9c0-2.14.76-3.51 3.37-3.51h1.61a.51.51 0 0 0 .51-.52v-2a.53.53 0 0 0-.51-.52zM13.88 17.81a16 16 0 1 0 7-15.07.32.32 0 0 0-.06.18.27.27 0 0 0 .08.19l2.21 2.21a.26.26 0 0 0 .17.07.18.18 0 0 0 .13 0 12.43 12.43 0 1 1-5.65 13.81 1.16 1.16 0 0 1 0-.15.25.25 0 0 1 .08-.18l6.68-6.7a.24.24 0 0 1 .36 0l5.57 5.54a.23.23 0 0 0 .18.07h8.89a.25.25 0 0 0 .25-.25v-3.07a.26.26 0 0 0-.25-.26h-7.45a.24.24 0 0 1-.18-.07l-7-7a.26.26 0 0 0-.19-.08.25.25 0 0 0-.18.08L14 17.6a.26.26 0 0 0-.08.19z" transform="translate(.02)"/><path class="cls-1" d="M20 9.12L22.12 7a.29.29 0 0 0 .07-.18.32.32 0 0 0-.07-.19l-3-3a.32.32 0 0 0-.19-.07h-4.36a.25.25 0 0 0-.26.25.29.29 0 0 0 .07.19l5.22 5.13a.23.23 0 0 0 .18.07.24.24 0 0 0 .22-.07z" transform="translate(.02)"/><path class="cls-2" d="M16.33 12.65l2.16-2.16a.23.23 0 0 0 .08-.18.25.25 0 0 0-.08-.18l-6.57-6.58a.29.29 0 0 0-.19-.07H7.41a.25.25 0 0 0-.18.44L16 12.65a.23.23 0 0 0 .18.08.25.25 0 0 0 .18-.08z" transform="translate(.02)"/><path d="M.08 4l12.26 12.28a.25.25 0 0 0 .18.08.23.23 0 0 0 .18-.08l2.16-2.16a.25.25 0 0 0 .08-.18.23.23 0 0 0-.08-.18L4.75 3.64a.25.25 0 0 0-.18-.08H.23a.26.26 0 0 0-.23.26.27.27 0 0 0 .05.18z" transform="translate(.02)" fill="#8cc16f"/><path class="cls-1" d="M33.75 23.38h2.78a.26.26 0 0 0 .24-.25v-3a.26.26 0 0 0-.24-.25h-2.78a.25.25 0 0 0-.24.25v3a.25.25 0 0 0 .24.25z" transform="translate(.02)"/><path class="cls-2" d="M28.54 23.38h2.79a.25.25 0 0 0 .23-.25v-3a.25.25 0 0 0-.23-.25h-2.79a.25.25 0 0 0-.23.25v3a.25.25 0 0 0 .23.25z" transform="translate(.02)"/><path d="M26.12 24.73h-2.78a.25.25 0 0 1-.24-.25V18a.26.26 0 0 1 .24-.25h2.78a.26.26 0 0 1 .24.25v6.44a.25.25 0 0 1-.24.25z" transform="translate(.02)"/></svg>