<svg xmlns="http://www.w3.org/2000/svg" viewBox="0 0 209.93 48.08"><defs><style>.cls-1{fill:#319b42}.cls-2{fill:#78be20}.cls-3{fill:#fff}</style></defs><title>Asset 1</title><g id="Layer_2" data-name="Layer 2"><g id="Layer_1-2" data-name="Layer 1"><path class="cls-1" d="M82.33 14.29L76.67.21l-.02-.05h-.37l-5.65 14.21L66.87.38l-.01-.06h-2.32l5.36 19.74.01.06.55.06 5.95-15.14 6.04 15.08.02.06.55-.06L88.36.42l.02-.1h-2.31l-3.74 13.97zM98.66 0a9.84 9.84 0 0 0-9.81 10.08 9.73 9.73 0 1 0 19.44 0A9.76 9.76 0 0 0 98.66 0zm7.16 10.08c0 4.56-3.11 8-7.24 8s-7.27-3.44-7.27-8 3.13-8 7.27-8 7.24 3.43 7.24 8zM119.77 0A9.84 9.84 0 0 0 110 10.08a9.73 9.73 0 1 0 19.44 0A9.76 9.76 0 0 0 119.77 0zm7.17 10.08c0 4.56-3.12 8-7.25 8s-7.26-3.44-7.26-8 3.12-8 7.26-8 7.25 3.43 7.25 8zm9.92-9.9a40.89 40.89 0 0 0-5.05.32h-.07v19.14h.07A48.57 48.57 0 0 0 137 20c7.56 0 11-5.06 11-10.08 0-4.7-3.5-9.74-11.14-9.74zm8.66 9.71c0 5.06-3.07 8.09-8.22 8.09a18.44 18.44 0 0 1-3.28-.2V2.35a19.72 19.72 0 0 1 3-.2c5.25 0 8.5 2.97 8.5 7.74zm17.41-3.82c0-3.69-2.81-5.89-7.52-5.89A33.63 33.63 0 0 0 151 .5h-.08v19.3h2.28v-7.61c.64 0 1.51.05 2.11.05.43 0 .84 0 1.24-.05l5.11 7.58h2.77l-5.65-8.11a5.7 5.7 0 0 0 4.15-5.59zm-2.44.13c0 2.67-1.75 4.08-5.08 4.08a22.53 22.53 0 0 1-2.26-.12V2.45a14.26 14.26 0 0 1 2.58-.2c2.89 0 4.76 1.55 4.76 3.95zm17.69 6.43c0 3.5-1.81 5.43-5.11 5.43s-5-1.93-5-5.43V.32h-2.28v12.47c0 4.59 2.74 7.33 7.33 7.33s7.39-2.87 7.39-7.33V.32h-2.28zm6.09 7.18h2.28v-8.49h8.28V9.25h-8.28V2.39h9.2V.32h-11.48v19.49zm25.66-17.42V.32h-11.48v19.49h2.28v-8.49h8.28V9.25h-8.28V2.39h9.2z"/><path class="cls-2" d="M71.21 34.34C69 33.32 68 32.27 68 30.93c0-1.9 1.39-3.13 3.55-3.13A6 6 0 0 1 75 29l.1.07 1-2L76 27a7.84 7.84 0 0 0-4.35-1.34c-3.37 0-6 2.36-6 5.38 0 2.41 1.3 3.92 4.65 5.39 3.19 1.42 3.75 2.41 3.75 4a3.22 3.22 0 0 1-3.53 3.27 8.31 8.31 0 0 1-4.6-1.7l-.1-.07L64.7 44l.08.06a9.85 9.85 0 0 0 5.65 1.81 5.71 5.71 0 0 0 6-5.65c.01-2.71-1.21-4.07-5.22-5.88zm15.16-8.71h-.49l-8.7 19.73-.06.15h2.42l2.29-5.35h8.51l2.26 5.28v.07h2.5L86.39 25.7zm3.11 12.55h-6.79l3.39-7.93zM111 39.9l-5.63-14.01-.03-.07h-.4l-5.63 14.16-3.76-14h-2.36l5.38 19.84.58.07 5.94-15.12 6.01 15.04.03.08.58-.07 5.34-19.71.04-.13h-2.36L111 39.9zm15.58-5.06l-5.45-8.81-.03-.05h-2.62l6.86 10.86v8.67h2.32v-8.64l6.89-10.89h-2.58l-5.39 8.86zm10.09 10.67h11.52V43.4h-9.2v-6.75h8.28v-2.11h-8.28v-6.45h9.2v-2.11h-11.52v19.53zm23.1-8.12a5.73 5.73 0 0 0 4.16-5.64c0-3.64-2.89-5.91-7.54-5.91a33.8 33.8 0 0 0-4.47.32h-.09v19.35h2.32V37.9h3.32l5.13 7.61h2.82zm1.68-5.51c0 2.66-1.75 4.06-5.06 4.06a22.12 22.12 0 0 1-2.24-.12v-7.67a14 14 0 0 1 2.55-.2c2.88.05 4.75 1.55 4.75 3.93z"/><path class="cls-1" d="M38.93 38.66l-19.47 9.42L0 38.66V.69h38.93v37.97z"/><path class="cls-3" d="M19.2 29.49h-.39l-4.49-10-4.43 10h-.37L4.89 14.83h2.72l2.59 9.09 4-9.21h.28l4 9.15 2.56-9h2.68zm9.69 0a8.46 8.46 0 0 1-4.53-1.42l.85-2.2A6.66 6.66 0 0 0 29 27.21c1.51 0 2.18-.89 2.18-1.89s-.43-1.64-2.71-2.6c-2.55-1.06-3.47-2.36-3.47-4.1 0-2.08 1.73-4 4.74-4a6.89 6.89 0 0 1 3.63 1l-.79 2.17a5.61 5.61 0 0 0-2.89-1c-1.52 0-2.23.83-2.23 1.8s.71 1.53 2.5 2.32c2.85 1.24 3.68 2.4 3.68 4.29.01 2.3-1.78 4.29-4.75 4.29z"/></g></g></svg>